<svg width="100" height="100" xmlns="http://www.w3.org/2000/svg" viewBox="0 0 100 100">
  <circle cx="50" cy="50" r="48" fill="#FFF0E8" stroke="#182230" stroke-width="2"/>
  <!-- Hair back -->
  <path d="M25,50 C25,75 75,75 75,50" fill="#182230" stroke="#182230" stroke-width="2"/>
  <!-- Neck -->
  <rect x="45" y="65" width="10" height="15" fill="#FFE2D1" stroke="#182230" stroke-width="2"/>
  <!-- Shirt -->
  <path d="M30,80 L70,80 Q50,70 30,80" fill="#7C6FF2" stroke="#182230" stroke-width="2"/>
  <!-- Head -->
  <circle cx="50" cy="48" r="22" fill="#FFE2D1" stroke="#182230" stroke-width="2"/>
  <!-- Hair front -->
  <path d="M28,45 C28,30 72,30 72,45 C65,37 35,37 28,45 Z" fill="#182230" stroke="#182230" stroke-width="2"/>
  <!-- Beanie -->
  <path d="M30,36 C30,22 70,22 70,36 Z" fill="#EF5B5B" stroke="#182230" stroke-width="2"/>
  <circle cx="50" cy="22" r="4" fill="#EF5B5B" stroke="#182230" stroke-width="2"/>
  <!-- Eyes -->
  <circle cx="43" cy="48" r="3" fill="#182230"/>
  <circle cx="57" cy="48" r="3" fill="#182230"/>
  <!-- Smile -->
  <path d="M46,58 Q50,62 54,58" fill="none" stroke="#182230" stroke-width="2" stroke-linecap="round"/>
</svg>
